<?xml version="1.0" encoding="UTF-8"?>
<svg xmlns="http://www.w3.org/2000/svg" width="64" height="64" viewBox="0 0 64 64" role="img" aria-label="ByteFlusher favicon">
  <title>ByteFlusher</title>
  <defs>
    <linearGradient id="g" x1="0" y1="0" x2="0" y2="1">
      <stop offset="0" stop-color="#2f3a4a" />
      <stop offset="1" stop-color="#1a2230" />
    </linearGradient>
  </defs>

  <!-- background -->
  <rect x="2" y="2" width="60" height="60" rx="14" fill="#0b0d11" />

  <!-- antenna -->
  <circle cx="32" cy="9" r="3" fill="#9fb4d1" />
  <rect x="31" y="11" width="2" height="7" rx="1" fill="#9fb4d1" />

  <!-- head -->
  <rect x="14" y="16" width="36" height="34" rx="10" fill="url(#g)" stroke="#4a5a73" stroke-width="2" />

  <!-- eyes -->
  <circle cx="26" cy="32" r="5" fill="#e9f2ff" />
  <circle cx="38" cy="32" r="5" fill="#e9f2ff" />
  <circle cx="26" cy="32" r="2.5" fill="#2b80ff" />
  <circle cx="38" cy="32" r="2.5" fill="#2b80ff" />

  <!-- mouth -->
  <rect x="22" y="40" width="20" height="6" rx="3" fill="#0b0d11" opacity="0.85" />
  <rect x="24" y="42" width="3" height="2" rx="1" fill="#9fb4d1" />
  <rect x="29" y="42" width="3" height="2" rx="1" fill="#9fb4d1" />
  <rect x="34" y="42" width="3" height="2" rx="1" fill="#9fb4d1" />
  <rect x="39" y="42" width="3" height="2" rx="1" fill="#9fb4d1" />

  <!-- subtle highlight -->
  <path d="M22 22c6-5 14-6 20-2" fill="none" stroke="#ffffff" stroke-opacity="0.12" stroke-width="3" stroke-linecap="round" />
</svg>
